<?xml version="1.0" standalone="no"?>
<!DOCTYPE svg PUBLIC "-//W3C//DTD SVG 20010904//EN"
 "http://www.w3.org/TR/2001/REC-SVG-20010904/DTD/svg10.dtd">
<svg version="1.0" xmlns="http://www.w3.org/2000/svg"
 width="262.000000pt" height="262.000000pt" viewBox="0 0 262.000000 262.000000"
 preserveAspectRatio="xMidYMid meet">

<g transform="translate(0.000000,262.000000) scale(0.100000,-0.100000)"
fill="#000000" stroke="none">
<path d="M215 1549 c4 -63 9 -116 11 -117 1 -2 34 26 73 62 l70 66 66 0 c36 0
65 -2 65 -5 0 -2 -23 -48 -51 -101 -37 -69 -48 -98 -40 -103 8 -6 4 -13 -14
-25 -14 -10 -50 -54 -79 -99 -30 -45 -68 -95 -85 -111 -17 -17 -31 -34 -31
-39 0 -11 183 1 261 18 39 7 86 8 149 2 51 -4 98 -6 106 -3 11 4 14 29 14 106
0 55 -3 100 -7 100 -4 0 -37 -29 -74 -65 l-66 -66 -65 3 -65 3 114 190 c63
105 125 201 139 216 13 14 24 30 24 37 0 17 -110 16 -110 0 -1 -8 -5 -7 -14 4
-10 13 -26 16 -77 15 -35 -1 -86 1 -114 5 -27 4 -85 10 -128 14 l-79 7 7 -114z"/>
<path d="M2238 1653 c-53 -4 -62 -18 -23 -33 25 -9 33 -37 17 -55 -5 -6 -23
-51 -40 -100 -38 -112 -71 -189 -77 -183 -3 3 -19 54 -35 114 -17 60 -33 116
-37 124 -14 37 -8 66 22 93 l30 28 -100 -7 c-55 -4 -122 -10 -150 -13 l-50 -6
37 -23 c32 -20 38 -31 49 -80 7 -31 20 -66 31 -78 11 -13 18 -36 18 -63 0 -23
8 -61 18 -84 11 -23 31 -76 46 -118 l27 -76 74 -7 c73 -7 125 -1 125 14 0 4
-11 15 -25 24 l-24 16 30 82 c16 45 34 87 38 93 4 5 21 46 36 90 41 119 81
190 126 221 21 15 39 28 39 30 0 5 -133 2 -202 -3z"/>
<path d="M783 1610 c-23 -9 -32 -30 -13 -30 15 0 42 -48 55 -98 9 -33 10 -90
5 -196 -6 -118 -5 -157 6 -189 17 -48 17 -47 0 -47 -9 0 -16 -19 -20 -59 -6
-54 -11 -63 -57 -110 l-51 -50 130 4 c189 6 303 41 348 106 15 22 39 45 53 52
14 6 34 29 44 49 27 56 48 189 38 240 -13 64 -56 174 -80 204 -55 70 -149 110
-290 124 -116 11 -139 11 -168 0z m298 -127 c18 -11 41 -41 57 -73 24 -50 27
-66 27 -165 0 -103 -2 -114 -32 -177 -32 -69 -75 -108 -118 -108 -20 0 -20 7
-20 270 l0 270 28 0 c16 0 42 -8 58 -17z"/>
<path d="M1650 1609 c-36 -4 -118 -8 -182 -9 -65 0 -118 -3 -118 -6 0 -4 11
-14 24 -25 19 -15 25 -32 30 -86 4 -37 7 -75 7 -83 -9 -215 -12 -234 -44 -261
l-30 -25 134 -2 c74 -1 167 -3 208 -4 l73 -3 -1 110 c-1 60 -4 111 -5 113 -7
6 -46 -65 -46 -83 0 -9 -14 -30 -31 -46 -26 -25 -39 -29 -85 -29 l-54 0 0 80
c0 76 1 80 23 80 12 -1 38 -14 57 -31 l35 -30 6 73 c3 40 5 75 2 77 -2 3 -19
-3 -38 -12 -68 -32 -75 -27 -75 58 0 72 1 75 24 75 13 0 37 3 54 6 29 6 33 2
78 -65 26 -39 50 -71 54 -71 4 0 8 41 9 91 1 50 3 96 4 102 3 15 -31 17 -113
6z"/>
</g>
</svg>
